<svg aria-hidden="true" style="position: absolute; width: 0; height: 0; overflow: hidden;" version="1.1" xmlns="http://www.w3.org/2000/svg" xmlns:xlink="http://www.w3.org/1999/xlink">
<defs>
<symbol id="icon-map" viewBox="0 0 32 32">
<path d="M26.265 7.255l-6.685-2.028h-0.032c-0.032 0-0.063 0-0.095-0.032h-0.19c-0.032 0-0.063 0-0.095 0.032h-0.032l-6.463 1.964-6.463-1.964c-0.222-0.063-0.475-0.032-0.665 0.127s-0.317 0.38-0.317 0.602v18.059c0 0.349 0.222 0.634 0.539 0.729l6.685 2.028c0.063 0.032 0.158 0.032 0.222 0.032s0.158 0 0.222-0.032l6.463-1.964 6.463 1.964c0.063 0.032 0.158 0.032 0.222 0.032 0.158 0 0.317-0.063 0.444-0.158 0.19-0.158 0.317-0.38 0.317-0.602v-18.059c0-0.317-0.222-0.634-0.539-0.729zM6.717 7.002l5.164 1.552v16.444l-5.164-1.552v-16.444zM13.402 8.554l5.164-1.552v16.444l-5.164 1.552v-16.444zM25.283 24.998l-5.164-1.552v-16.444l5.164 1.552v16.444z"></path>
</symbol>
<symbol id="icon-cart" viewBox="0 0 32 32">
<path d="M25.115 21.879h-11.474c-2.18-0.016-4.003-1.529-4.492-3.561l-0.006-0.032-1.829-7.433c-0.084-0.332-0.133-0.714-0.133-1.106 0-2.58 2.092-4.672 4.672-4.672 0.011 0 0.023 0 0.034 0h15.084c0.010-0 0.021-0 0.032-0 2.58 0 4.672 2.092 4.672 4.672 0 0.393-0.048 0.774-0.14 1.139l0.007-0.032-1.829 7.451c-0.508 2.067-2.345 3.575-4.534 3.575-0.023 0-0.045-0-0.068-0l0.003 0zM11.831 7.36c-1.32 0.004-2.388 1.075-2.388 2.395 0 0.198 0.024 0.39 0.069 0.574l-0.003-0.016 1.829 7.451c0.257 1.056 1.195 1.829 2.313 1.829 0.003 0 0.007 0 0.010-0h11.455c0.003 0 0.006 0 0.009 0 1.118 0 2.056-0.772 2.31-1.812l0.003-0.016 1.829-7.451c0.043-0.17 0.068-0.366 0.068-0.567 0-1.318-1.068-2.386-2.386-2.386-0.002 0-0.003 0-0.005 0h0z"></path>
<path d="M8.649 12.8c-0.545-0.007-0.997-0.393-1.105-0.907l-0.001-0.007-1.637-7.104c-0.313-1.309-1.474-2.267-2.858-2.267-0.005 0-0.009 0-0.014 0h-1.49c-0.631 0-1.143-0.512-1.143-1.143s0.512-1.143 1.143-1.143v0h1.49c0.005-0 0.012-0 0.018-0 2.462 0 4.525 1.704 5.076 3.996l0.007 0.036 1.627 7.104c0.020 0.080 0.032 0.172 0.032 0.266 0 0.537-0.373 0.987-0.874 1.104l-0.008 0.002c-0.076 0.028-0.166 0.051-0.258 0.063l-0.007 0.001zM13.815 31.771c-2.020 0-3.657-1.637-3.657-3.657s1.637-3.657 3.657-3.657c2.020 0 3.657 1.637 3.657 3.657v0c0 2.020-1.637 3.657-3.657 3.657v0zM13.815 26.706c-0.768 0-1.39 0.622-1.39 1.39s0.622 1.39 1.39 1.39c0.768 0 1.39-0.622 1.39-1.39v0c0-0.768-0.622-1.39-1.39-1.39v0zM26.45 31.771c-2.020 0-3.657-1.637-3.657-3.657s1.637-3.657 3.657-3.657c2.020 0 3.657 1.637 3.657 3.657v0c0 2.020-1.637 3.657-3.657 3.657v0zM26.45 26.706c-0.764 0.005-1.381 0.625-1.381 1.39 0 0.768 0.622 1.39 1.39 1.39s1.39-0.622 1.39-1.39v0c0 0 0-0 0-0 0-0.768-0.622-1.39-1.39-1.39-0.003 0-0.006 0-0.010 0h0z"></path>
<path d="M26.45 26.706h-15.232c-1.964 0-3.557-1.592-3.557-3.557s1.592-3.557 3.557-3.557h2.423c0.631 0 1.143 0.512 1.143 1.143s-0.512 1.143-1.143 1.143v0h-2.423c-0.702 0-1.271 0.569-1.271 1.271s0.569 1.271 1.271 1.271v0h15.232c0.631 0 1.143 0.512 1.143 1.143s-0.512 1.143-1.143 1.143v0z"></path>
</symbol>
<symbol id="icon-fork" viewBox="0 0 32 32">
<path d="M25.333 2.667c-0.736 0-1.333 0.597-1.333 1.333v0 7.28l-1.333 0.893v-8.173c0-0.736-0.597-1.333-1.333-1.333s-1.333 0.597-1.333 1.333v0 8.173l-1.333-0.893v-7.28c0-0.736-0.597-1.333-1.333-1.333s-1.333 0.597-1.333 1.333v0 8c0.002 0.461 0.238 0.866 0.595 1.104l0.005 0.003 3.4 2.28v12.613c0 0.736 0.597 1.333 1.333 1.333s1.333-0.597 1.333-1.333v0-12.613l3.4-2.28c0.362-0.241 0.598-0.646 0.6-1.106v-8c0-0.736-0.597-1.333-1.333-1.333v0zM12 2.667v0c-3.682 0-6.667 2.985-6.667 6.667v0 8c0 0.736 0.597 1.333 1.333 1.333v0h4v9.333c0 0.736 0.597 1.333 1.333 1.333s1.333-0.597 1.333-1.333v0-24c0-0.736-0.597-1.333-1.333-1.333v0zM10.667 16h-2.667v-6.667c0-0.001 0-0.001 0-0.002 0-1.731 1.1-3.206 2.639-3.762l0.028-0.009z"></path>
</symbol>
<symbol id="icon-toilet" viewBox="0 0 32 32">
<path d="M25 12h-9.5c-0.552 0.001-0.999 0.448-1 1v1h-1.5v-10.5c-0.001-0.828-0.672-1.499-1.5-1.5h-4c-0.828 0.001-1.499 0.672-1.5 1.5v15c0.002 1.203 0.852 2.207 1.984 2.447l0.016 0.003v8.55c0 0.276 0.224 0.5 0.5 0.5v0h14c0 0 0 0 0 0 0.276 0 0.5-0.224 0.5-0.5 0-0.084-0.021-0.163-0.057-0.233l0.001 0.003c-1.228-2.317-1.949-5.066-1.949-7.983 0-0.101 0.001-0.201 0.003-0.302l-0 0.015h0.003c2.76-0.003 4.997-2.24 5-5v-3c-0.001-0.552-0.448-0.999-1-1h-0zM15.5 13h9.5v1h-9.5zM7 5h5v9h-5zM7.5 3h4c0.276 0 0.5 0.224 0.5 0.5v0.5h-5v-0.5c0-0.276 0.224-0.5 0.5-0.5h0zM20.515 25.619c0.321 1.298 0.726 2.424 1.231 3.494l-0.048-0.113h-12.698v-8h10.987c-0.001 0.067-0.001 0.147-0.001 0.227 0 1.559 0.193 3.073 0.556 4.519l-0.027-0.128zM25 16c-0.003 2.208-1.792 3.997-4 4h-12.5c-0.828-0.001-1.499-0.672-1.5-1.5v-3.5h18z"></path>
<path d="M11 5.5h-1c-0.276 0-0.5 0.224-0.5 0.5v0 0.5c0 0.276 0.224 0.5 0.5 0.5s0.5-0.224 0.5-0.5v0h0.5c0.276 0 0.5-0.224 0.5-0.5s-0.224-0.5-0.5-0.5v0z"></path>
</symbol>
<symbol id="icon-plate" viewBox="0 0 32 32">
<path d="M16 31c8.284 0 15-6.716 15-15s-6.716-15-15-15c-8.284 0-15 6.716-15 15v0c0 8.284 6.716 15 15 15v0zM16 3c7.18 0 13 5.82 13 13s-5.82 13-13 13c-7.18 0-13-5.82-13-13v0c0-7.18 5.82-13 13-13v0z"></path>
<path d="M23.42 16c-0.002 4.096-3.323 7.417-7.42 7.417-2.046 0-3.898-0.828-5.24-2.167l0 0c-0.174-0.149-0.401-0.24-0.65-0.24-0.552 0-1 0.448-1 1 0 0.249 0.091 0.477 0.242 0.652l-0.001-0.001c1.703 1.7 4.054 2.752 6.65 2.752 5.198 0 9.412-4.214 9.412-9.412 0-2.601-1.055-4.956-2.761-6.66l-0-0c-0.174-0.149-0.401-0.24-0.65-0.24-0.552 0-1 0.448-1 1 0 0.249 0.091 0.477 0.242 0.652l-0.001-0.001c1.346 1.336 2.18 3.187 2.18 5.233 0 0.006 0 0.012-0 0.018v-0.001zM7.58 17c0.552 0 1-0.448 1-1v0c0.011-4.091 3.328-7.404 7.419-7.41h0.001c0.552 0 1-0.448 1-1s-0.448-1-1-1v0c-5.197 0.006-9.409 4.214-9.42 9.409v0.001c0 0.552 0.448 1 1 1v0z"></path>
</symbol>
<symbol id="icon-fridge" viewBox="0 0 32 32">
<path d="M23.311 0h-14.622c-0.793 0-1.439 0.627-1.439 1.397v27.364c0 0.77 0.646 1.398 1.439 1.398h0.382v1.357c0 0.267 0.217 0.485 0.485 0.485h2.021c0.268 0 0.485-0.217 0.485-0.485v-1.357h7.88v1.357c0 0.267 0.217 0.485 0.485 0.485h2.021c0.267 0 0.485-0.217 0.485-0.485v-1.357h0.382c0.793 0 1.439-0.627 1.439-1.398v-27.364c-0.001-0.77-0.648-1.397-1.441-1.397zM8.219 11.675h15.562v0.688h-15.562v-0.688zM8.689 0.97h14.622c0.259 0 0.47 0.192 0.47 0.427v9.308h-15.562v-9.307c0-0.236 0.211-0.428 0.47-0.428zM11.091 31.030h-1.051v-0.871h1.051v0.871zM21.96 31.030h-1.051v-0.871h1.051v0.871zM23.311 29.189h-14.622c-0.259 0-0.47-0.192-0.47-0.427v-15.43h15.561v15.43c0 0.235-0.211 0.428-0.47 0.428z"></path>
<path d="M11.028 9.579c0.268 0 0.485-0.217 0.485-0.485v-2.884c0-0.269-0.217-0.486-0.485-0.486s-0.486 0.217-0.486 0.486v2.884c0 0.268 0.217 0.485 0.486 0.485zM11.028 14.107c-0.268 0-0.486 0.217-0.486 0.486v8.661c0 0.267 0.217 0.485 0.486 0.485s0.485-0.217 0.485-0.485v-8.661c-0.001-0.269-0.217-0.486-0.485-0.486z"></path>
</symbol>
<symbol id="icon-house" viewBox="0 0 32 32">
<path d="M30 15c-0.218-0.001-0.419-0.072-0.583-0.192l0.003 0.002-13.42-9.58-13.42 9.58c-0.146 0.088-0.322 0.14-0.51 0.14-0.552 0-1-0.448-1-1 0-0.303 0.135-0.575 0.348-0.758l0.001-0.001 14-10c0.161-0.116 0.362-0.185 0.58-0.185s0.419 0.069 0.583 0.187l-0.003-0.002 14 10c0.252 0.184 0.414 0.478 0.414 0.81 0 0.55-0.444 0.996-0.993 1h-0zM5 9c-0.552 0-1-0.448-1-1v0-4c0-0.552 0.448-1 1-1v0h4c0.552 0 1 0.448 1 1s-0.448 1-1 1v0h-3v3c0 0.552-0.448 1-1 1v0z"></path>
<path d="M25 29h-5c-0.552 0-1-0.448-1-1v0-7h-6v7c0 0.552-0.448 1-1 1v0h-5c-1.657 0-3-1.343-3-3v0-10c0-0.552 0.448-1 1-1s1 0.448 1 1v0 10c0 0.552 0.448 1 1 1v0h4v-7c0-0.552 0.448-1 1-1v0h8c0.552 0 1 0.448 1 1v0 7h4c0.552 0 1-0.448 1-1v0-10c0-0.552 0.448-1 1-1s1 0.448 1 1v0 10c0 1.657-1.343 3-3 3v0z"></path>
</symbol>
<symbol id="icon-bicycle" viewBox="0 0 32 32">
<path d="M10.583 19.524h-4.361q-0.556 0-0.799-0.486t0.090-0.931l2.611-3.486q-0.903-0.431-1.903-0.431-1.833 0-3.139 1.306t-1.306 3.139 1.306 3.139 3.139 1.306q1.597 0 2.819-1.007t1.542-2.549zM8 17.746h2.583q-0.25-1.181-1.042-2.056zM14.667 17.746l4-5.333h-6.667l-1.375 1.833q1.458 1.431 1.75 3.5h2.292zM30.222 18.635q0-1.833-1.306-3.139t-3.139-1.306q-0.833 0-1.681 0.333l2.417 3.611q0.208 0.319 0.139 0.681t-0.375 0.556q-0.208 0.153-0.5 0.153-0.486 0-0.736-0.403l-2.417-3.611q-1.292 1.319-1.292 3.125 0 1.833 1.306 3.139t3.139 1.306 3.139-1.306 1.306-3.139zM32 18.635q0 2.569-1.826 4.396t-4.396 1.826-4.396-1.826-1.826-4.396q0-1.347 0.549-2.549t1.521-2.076l-0.903-1.361-4.903 6.514q-0.25 0.361-0.708 0.361h-2.736q-0.319 2.278-2.069 3.806t-4.083 1.528q-2.569 0-4.396-1.826t-1.826-4.396 1.826-4.396 4.396-1.826q1.583 0 2.986 0.764l1.903-2.542h-3.111q-0.361 0-0.625-0.264t-0.264-0.625 0.264-0.625 0.625-0.264h5.333v1.778h6.042l-1.181-1.778h-3.083q-0.361 0-0.625-0.264t-0.264-0.625 0.264-0.625 0.625-0.264h3.556q0.458 0 0.736 0.389l3.708 5.556q1.264-0.611 2.667-0.611 2.569 0 4.396 1.826t1.826 4.396z"></path>
</symbol>
<symbol id="icon-grill" viewBox="0 0 32 32">
<path d="M20.849 18.487c2.198-1.507 3.647-3.968 3.747-6.773l0-0.015c0-0.005 0-0.011 0-0.017 0-0.131-0.052-0.25-0.136-0.337l0 0c-0.088-0.092-0.212-0.15-0.349-0.15h-16.218c-0.137 0.001-0.261 0.058-0.349 0.15l-0 0c-0.084 0.087-0.136 0.206-0.136 0.337 0 0.006 0 0.012 0 0.018l-0-0.001c0.1 2.82 1.549 5.281 3.719 6.769l0.029 0.019-3.729 12.402c-0.013 0.042-0.021 0.091-0.021 0.141 0 0.268 0.217 0.485 0.485 0.485 0.007 0 0.015-0 0.022-0l-0.001 0c0.006 0 0.013 0 0.019 0 0.22 0 0.405-0.146 0.465-0.346l0.001-0.003 1.678-5.576h11.937l1.59 5.193c0.062 0.201 0.246 0.345 0.464 0.345 0.007 0 0.015-0 0.022-0l-0.001 0c0.021 0.003 0.046 0.005 0.070 0.005s0.049-0.002 0.073-0.005l-0.003 0c0.202-0.062 0.346-0.246 0.346-0.465 0-0.050-0.008-0.099-0.022-0.145l0.001 0.003zM8.417 12.184h15.176c-0.254 2.407-1.598 4.454-3.522 5.664l-0.032 0.019-0.073 0.039c-1.13 0.691-2.498 1.1-3.961 1.1s-2.831-0.409-3.995-1.12l0.034 0.019c-0.021-0.017-0.045-0.030-0.071-0.038l-0.002-0c-1.958-1.227-3.303-3.275-3.556-5.649l-0.003-0.033zM16 19.976c0.005 0 0.012 0 0.018 0 1.451 0 2.819-0.359 4.019-0.992l-0.047 0.023 0.858 2.851h-9.697l0.858-2.851c1.152 0.611 2.518 0.97 3.968 0.97 0.008 0 0.016 0 0.024-0h-0.001zM10.327 24.621l0.538-1.794h10.298l0.548 1.794zM12.528 5.411c-2.007 2.347-1.062 4.233-0.325 5.149 0.090 0.11 0.225 0.179 0.377 0.179 0.001 0 0.001 0 0.002 0h-0c0.001 0 0.001 0 0.002 0 0.268 0 0.485-0.217 0.485-0.485 0-0.116-0.041-0.223-0.109-0.306l0.001 0.001c-0.97-1.212-0.878-2.526 0.305-3.908 1.455-1.721 1.969-3.006 2.080-3.879 0.898 0.844 1.603 1.884 2.047 3.052l0.019 0.056c-0.126 0.17-0.267 0.354-0.431 0.548-1.629 1.905-0.553 3.394 0 3.961 0.090 0.107 0.223 0.174 0.372 0.174 0.268 0 0.485-0.217 0.485-0.485 0-0.144-0.063-0.274-0.163-0.363l-0-0c-0.776-0.81-0.761-1.702 0.053-2.652 0.224-0.257 0.441-0.538 0.64-0.832l0.020-0.031c0.36-0.498 0.625-1.090 0.756-1.731l0.005-0.029c0.97 0.819 2.352 2.657 1.275 5.998-0.015 0.044-0.023 0.096-0.023 0.149 0 0.216 0.141 0.398 0.335 0.461l0.003 0.001c0.022 0.004 0.047 0.005 0.073 0.005s0.051-0.002 0.075-0.006l-0.003 0c0.007 0 0.014 0.001 0.022 0.001 0.216 0 0.399-0.141 0.462-0.336l0.001-0.003c1.77-5.527-2.521-7.646-2.565-7.675-0.062-0.030-0.134-0.048-0.211-0.048-0.268 0-0.485 0.217-0.485 0.485 0 0.099 0.030 0.191 0.081 0.268l-0.001-0.002c0.023 0.098 0.037 0.211 0.037 0.327 0 0.268-0.071 0.52-0.196 0.737l0.004-0.007c-0.749-1.447-1.77-2.656-3.005-3.598l-0.026-0.019c-0.077-0.054-0.173-0.086-0.276-0.086-0.125 0-0.239 0.047-0.325 0.125l0-0c-0.1 0.089-0.163 0.218-0.163 0.362 0 0.090 0.024 0.174 0.067 0.246l-0.001-0.002s0.688 1.319-1.775 4.199z"></path>
<path d="M11.050 5.057c0.070-0.001 0.137-0.015 0.197-0.040l-0.004 0.001c0.179-0.074 0.303-0.247 0.303-0.449 0-0.075-0.017-0.145-0.047-0.208l0.001 0.003c-0.172-0.329-0.273-0.718-0.273-1.131 0-0.326 0.063-0.637 0.177-0.922l-0.006 0.017c0.29 0.541 0.717 0.976 1.235 1.267l0.016 0.008c0.065 0.035 0.143 0.056 0.225 0.056 0.185 0 0.346-0.104 0.428-0.257l0.001-0.003c0.029-0.060 0.046-0.131 0.046-0.206 0-0.185-0.104-0.346-0.257-0.428l-0.003-0.001s-1.105-0.591-0.868-1.455c0.011-0.039 0.017-0.083 0.017-0.129 0-0.159-0.077-0.301-0.196-0.389l-0.001-0.001c-0.076-0.052-0.17-0.083-0.271-0.083s-0.195 0.031-0.273 0.084l0.002-0.001c-0.713 0.446-1.813 1.862-0.907 4 0.082 0.16 0.245 0.267 0.433 0.267 0.008 0 0.016-0 0.024-0.001l-0.001 0z"></path>
</symbol>
<symbol id="icon-wifi" viewBox="0 0 32 32">
<path d="M2.747 13.413c0.68 0.68 1.76 0.747 2.493 0.133 6.227-5.12 15.267-5.12 21.507-0.013 0.747 0.613 1.84 0.56 2.52-0.12 0.787-0.787 0.733-2.093-0.133-2.8-7.613-6.227-18.627-6.227-26.253 0-0.867 0.693-0.933 2-0.133 2.8zM13.093 23.76l1.96 1.96c0.52 0.52 1.36 0.52 1.88 0l1.96-1.96c0.627-0.627 0.493-1.707-0.307-2.12-1.627-0.84-3.573-0.84-5.213 0-0.76 0.413-0.907 1.493-0.28 2.12zM8.12 18.787c0.653 0.653 1.68 0.72 2.44 0.173 3.253-2.307 7.627-2.307 10.88 0 0.76 0.533 1.787 0.48 2.44-0.173l0.013-0.013c0.8-0.8 0.747-2.16-0.173-2.813-4.587-3.32-10.84-3.32-15.44 0-0.92 0.667-0.973 2.013-0.16 2.827z"></path>
</symbol>
<symbol id="icon-tv" viewBox="0 0 32 32">
<path d="M24 8h-4.787l3.067-3.053c0.242-0.242 0.392-0.577 0.392-0.947 0-0.739-0.599-1.339-1.339-1.339-0.37 0-0.704 0.15-0.947 0.392v0l-4.387 4.333-1.56-2.667c-0.235-0.404-0.666-0.671-1.16-0.671-0.739 0-1.338 0.599-1.338 1.338 0 0.245 0.066 0.475 0.181 0.673l-0.003-0.006 1.213 1.947h-5.333c-2.209 0-4 1.791-4 4v0 10.667c0 2.209 1.791 4 4 4v0 1.333c0 0.736 0.597 1.333 1.333 1.333s1.333-0.597 1.333-1.333v0-1.333h10.667v1.333c0 0.736 0.597 1.333 1.333 1.333s1.333-0.597 1.333-1.333v0-1.333c2.209 0 4-1.791 4-4v0-10.667c0-2.209-1.791-4-4-4v0zM25.333 22.667c0 0.736-0.597 1.333-1.333 1.333v0h-16c-0.736 0-1.333-0.597-1.333-1.333v0-10.667c0-0.736 0.597-1.333 1.333-1.333v0h16c0.736 0 1.333 0.597 1.333 1.333v0z"></path>
</symbol>
<symbol id="icon-playground" viewBox="0 0 32 32">
<path d="M29 10.33c-0.135-0.402-0.509-0.687-0.95-0.687-0.096 0-0.189 0.014-0.277 0.039l0.007-0.002-3.78 1.23-0.9-2.85c-0.135-0.402-0.509-0.687-0.95-0.687-0.096 0-0.189 0.014-0.277 0.039l0.007-0.002c-0.399 0.138-0.68 0.51-0.68 0.947 0 0.112 0.018 0.219 0.052 0.32l-0.002-0.007 0.9 2.86-4.85 1.62c-0.339-0.319-0.796-0.516-1.299-0.52h-0.001c-0.933 0.027-1.704 0.688-1.898 1.567l-0.002 0.013-4.88 1.63-0.89-2.84c-0.137-0.399-0.51-0.681-0.948-0.681-0.101 0-0.198 0.015-0.289 0.043l0.007-0.002c-0.394 0.14-0.671 0.51-0.671 0.944 0 0.113 0.019 0.221 0.053 0.323l-0.002-0.007 0.89 2.85-3.7 1.23c-0.394 0.14-0.671 0.51-0.671 0.944 0 0.113 0.019 0.221 0.053 0.323l-0.002-0.007c0.131 0.394 0.491 0.676 0.918 0.69l0.002 0c0.045 0.007 0.097 0.011 0.15 0.011s0.105-0.004 0.156-0.012l-0.006 0.001 9.73-3.28-3.66 6.78c-0.084 0.143-0.134 0.316-0.134 0.5s0.050 0.357 0.137 0.505l-0.003-0.005c0.174 0.29 0.484 0.483 0.839 0.49l0.001 0h9.72c0.356-0.007 0.666-0.2 0.837-0.485l0.003-0.005c0.084-0.143 0.134-0.316 0.134-0.5s-0.050-0.357-0.137-0.505l0.003 0.005-4.050-7.5c0.111-0.172 0.194-0.373 0.238-0.589l0.002-0.011 5.8-1.93 4.63-1.53c0.403-0.135 0.689-0.509 0.689-0.95 0-0.111-0.018-0.217-0.051-0.317l0.002 0.007zM12.79 22.63l3.21-5.94 3.21 5.94z"></path>
<path d="M29 10.090c-0.127-0.417-0.508-0.715-0.958-0.715-0.093 0-0.183 0.013-0.269 0.036l0.007-0.002-3.78 1.29-0.9-3c-0.13-0.412-0.508-0.706-0.956-0.706-0.094 0-0.185 0.013-0.271 0.037l0.007-0.002c-0.402 0.153-0.682 0.536-0.682 0.983 0 0.117 0.019 0.229 0.054 0.334l-0.002-0.007 0.9 3-4.85 1.66c-0.335-0.329-0.793-0.534-1.299-0.54h-0.001c-0.952 0.034-1.732 0.729-1.898 1.638l-0.002 0.012-4.88 1.72-0.89-3c-0.129-0.413-0.508-0.708-0.956-0.708-0.097 0-0.192 0.014-0.281 0.040l0.007-0.002c-0.398 0.159-0.674 0.541-0.674 0.987 0 0.119 0.020 0.234 0.056 0.34l-0.002-0.007 0.89 3-3.7 1.28c-0.398 0.159-0.674 0.541-0.674 0.987 0 0.119 0.020 0.234 0.056 0.34l-0.002-0.007c0.121 0.407 0.484 0.702 0.918 0.72l0.002 0c0.108-0.001 0.211-0.020 0.307-0.052l-0.007 0.002 9.73-3.37-3.66 7.070c-0.076 0.145-0.12 0.317-0.12 0.5s0.044 0.355 0.123 0.506l-0.003-0.006c0.169 0.298 0.48 0.498 0.838 0.51l0.002 0h9.72c0.36-0.012 0.671-0.212 0.837-0.505l0.003-0.005c0.076-0.145 0.12-0.317 0.12-0.5s-0.044-0.355-0.123-0.506l0.003 0.006-4.050-7.81c0.102-0.185 0.175-0.401 0.209-0.63l0.001-0.010 10.43-3.6c0.421-0.143 0.718-0.535 0.718-0.996 0-0.112-0.018-0.22-0.050-0.321l0.002 0.007zM12.79 22.92l3.21-6.2 3.21 6.2z"></path>
</symbol>
<symbol id="icon-shower" viewBox="0 0 32 32">
<path d="M23.847 15.97c-0.005-1.365-0.539-2.648-1.505-3.614-0.856-0.856-1.962-1.373-3.152-1.482v-1.817c0-1.161-0.455-2.255-1.281-3.080s-1.92-1.281-3.080-1.281h-2.315c-1.161 0-2.255 0.455-3.080 1.281s-1.281 1.92-1.281 3.080v17.768c0 0.265 0.215 0.48 0.48 0.48s0.48-0.215 0.48-0.48v-17.768c0-1.875 1.526-3.401 3.401-3.401h2.315c1.875 0 3.401 1.526 3.401 3.401v1.817c-1.191 0.11-2.296 0.626-3.152 1.482-0.97 0.97-1.505 2.26-1.505 3.632 0 0.265 0.215 0.48 0.48 0.48h9.314c0 0 0 0 0 0 0.265 0 0.48-0.215 0.48-0.48 0-0.006-0-0.012-0-0.019zM14.56 15.509c0.239-2.078 2.009-3.697 4.15-3.697s3.911 1.619 4.15 3.697h-8.299z"></path>
<path d="M14.937 17.229c-0.265 0-0.48 0.215-0.48 0.48v2.242c0 0.265 0.215 0.48 0.48 0.48s0.48-0.215 0.48-0.48v-2.242c0-0.265-0.215-0.48-0.48-0.48zM18.71 17.229c-0.265 0-0.48 0.215-0.48 0.48v2.242c0 0.265 0.215 0.48 0.48 0.48s0.48-0.215 0.48-0.48v-2.242c0-0.265-0.215-0.48-0.48-0.48zM22.483 17.229c-0.265 0-0.48 0.215-0.48 0.48v2.242c0 0.265 0.215 0.48 0.48 0.48s0.48-0.215 0.48-0.48v-2.242c0-0.265-0.215-0.48-0.48-0.48z"></path>
</symbol>
<symbol id="icon-chair" viewBox="0 0 32 32">
<path d="M8.5 2c-0.276 0-0.5 0.224-0.5 0.5v0 1.5h-2.5c-0.276 0-0.5 0.224-0.5 0.5v0 7c0 0.276 0.224 0.5 0.5 0.5v0h2.5v5h-2.5c-0.276 0-0.5 0.224-0.5 0.5v0 2c0 0.276 0.224 0.5 0.5 0.5v0h1.5v11.5c0 0.276 0.224 0.5 0.5 0.5v0h2c0.276 0 0.5-0.224 0.5-0.5v0-7.5h11v7.5c0 0.276 0.224 0.5 0.5 0.5v0h2c0.276 0 0.5-0.224 0.5-0.5v0-11.5h1.5c0.276 0 0.5-0.224 0.5-0.5v0-2c0-0.276-0.224-0.5-0.5-0.5v0h-2.5v-5h2.5c0.276 0 0.5-0.224 0.5-0.5v0-7c0-0.276-0.224-0.5-0.5-0.5v0h-2.5v-1.5c0-0.276-0.224-0.5-0.5-0.5v0h-2c-0.276 0-0.5 0.224-0.5 0.5v0 1.5h-9v-1.5c0-0.276-0.224-0.5-0.5-0.5v0h-2zM9 3h1v1h-1v-1zM21 3h1v1h-1v-1zM6 5h14.424c0.022 0.003 0.047 0.005 0.073 0.005s0.051-0.002 0.076-0.006l-0.003 0h1.854c0.022 0.003 0.047 0.005 0.073 0.005s0.051-0.002 0.076-0.006l-0.003 0h2.43v6h-19v-6zM9 12h1v5h-1v-5zM11 12h9v5h-9v-5zM21 12h1v5h-1v-5zM6 18h19v1h-19v-1zM8 20h1v11h-1v-11zM10 20h11v3h-11v-3zM22 20h1v11h-1v-11z"></path>
</symbol>
<symbol id="icon-sofa" viewBox="0 0 32 32">
<path d="M5.076 5c-1.69 0-3.076 1.357-3.076 3.033v2.018c-1.143 0.239-2 1.279-2 2.506v10.23c0 1.146 0.883 2.085 2 2.192v1.521c0 0.276 0.224 0.5 0.5 0.5v0h2c0.276 0 0.5-0.224 0.5-0.5v0-1.5h22v1.5c0 0.276 0.224 0.5 0.5 0.5v0h2c0.276 0 0.5-0.224 0.5-0.5v0-1.521c1.124-0.11 1.996-1.049 2-2.192v-10.23c0-1.227-0.857-2.267-2-2.506v-2.018c0-1.676-1.385-3.033-3.076-3.033zM5.076 6.012h21.848c1.157 0 2.064 0.898 2.064 2.021v2.020c-1.137 0.243-1.988 1.281-1.988 2.504v3.443h-22.040c-0.113 0.147 0.035 0.404 0.040 0.46v-3.903c0-1.223-0.852-2.26-1.988-2.504v-2.020c0-1.123 0.907-2.021 2.064-2.021zM2.5 11c0.832 0 1.5 0.678 1.5 1.557v11.443h-1.795c-0.675 0-1.205-0.53-1.205-1.213v-10.23c0-0.879 0.668-1.557 1.5-1.557zM29.5 11c0.832 0 1.5 0.678 1.5 1.557v10.23c0 0.683-0.53 1.213-1.205 1.213h-1.795v-11.443c0-0.879 0.668-1.557 1.5-1.557zM5 17h22v2.012h-22zM5 20.012h22v3.988h-22zM3 25h1v1h-1zM28 25h1v1h-1z"></path>
</symbol>
<symbol id="icon-pets" viewBox="0 0 32 32">
<path d="M9.333 12.667c0 1.841-1.492 3.333-3.333 3.333s-3.333-1.492-3.333-3.333c0-1.841 1.492-3.333 3.333-3.333s3.333 1.492 3.333 3.333z"></path>
<path d="M15.333 7.333c0 1.841-1.492 3.333-3.333 3.333s-3.333-1.492-3.333-3.333c0-1.841 1.492-3.333 3.333-3.333s3.333 1.492 3.333 3.333z"></path>
<path d="M23.333 7.333c0 1.841-1.492 3.333-3.333 3.333s-3.333-1.492-3.333-3.333c0-1.841 1.492-3.333 3.333-3.333s3.333 1.492 3.333 3.333z"></path>
<path d="M29.333 12.667c0 1.841-1.492 3.333-3.333 3.333s-3.333-1.492-3.333-3.333c0-1.841 1.492-3.333 3.333-3.333s3.333 1.492 3.333 3.333z"></path>
<path d="M23.12 19.813c-1.16-1.36-2.133-2.52-3.307-3.88-0.613-0.72-1.4-1.44-2.333-1.76-0.147-0.053-0.293-0.093-0.44-0.12-0.333-0.053-0.693-0.053-1.040-0.053s-0.707 0-1.053 0.067c-0.147 0.027-0.293 0.067-0.44 0.12-0.933 0.32-1.707 1.040-2.333 1.76-1.16 1.36-2.133 2.52-3.307 3.88-1.747 1.747-3.893 3.68-3.493 6.387 0.387 1.36 1.36 2.707 3.107 3.093 0.973 0.2 4.080-0.587 7.387-0.587h0.24c3.307 0 6.413 0.773 7.387 0.587 1.747-0.387 2.72-1.747 3.107-3.093 0.413-2.72-1.733-4.653-3.48-6.4z"></path>
</symbol>
<symbol id="icon-kitchen" viewBox="0 0 32 32">
<path d="M9.993 9.328c-0.221 0-0.4 0.179-0.4 0.4v2.034c0 0.221 0.179 0.4 0.4 0.4s0.4-0.179 0.4-0.4v-2.034c0-0.221-0.179-0.4-0.4-0.4zM9.993 19.456c-0.221 0-0.4 0.179-0.4 0.4v2.034c0 0.221 0.179 0.4 0.4 0.4s0.4-0.179 0.4-0.4v-2.034c0-0.221-0.179-0.4-0.4-0.4z"></path>
<path d="M28.171 16.458h-15.583v-6.33h1.89v0.831c-0.872 0.185-1.529 0.96-1.529 1.887 0 0.221 0.179 0.4 0.4 0.4h3.057c0 0 0 0 0 0 0.221 0 0.4-0.179 0.4-0.4 0-0.006-0-0.012-0-0.018-0.009-0.918-0.662-1.685-1.529-1.869v-0.831h2.079c0.074 0 0.145-0.013 0.211-0.038 0.066 0.024 0.137 0.038 0.211 0.038h4.958c0.073 0 0.144-0.013 0.209-0.037 0.064 0.024 0.134 0.037 0.206 0.037h1.998v0.831c-0.872 0.185-1.529 0.96-1.529 1.887 0 0.221 0.179 0.4 0.4 0.4h3.057c0.221 0 0.4-0.179 0.4-0.4 0-0.926-0.657-1.702-1.529-1.887v-0.831h1.998c0.333 0 0.604-0.274 0.604-0.611v-2.41c0-0.337-0.271-0.611-0.604-0.611h-4.797c-0.072 0-0.142 0.013-0.206 0.037-0.065-0.024-0.135-0.037-0.209-0.037h-4.958c-0.074 0-0.145 0.013-0.211 0.038-0.066-0.024-0.137-0.038-0.211-0.038h-4.958c-0.066 0-0.13 0.011-0.19 0.030-0.057-0.020-0.118-0.030-0.181-0.030h-8.039c-0.309 0-0.56 0.251-0.56 0.56v17.888c0 0.309 0.251 0.56 0.56 0.56h8.039c0.030 0 0.059-0.002 0.087-0.007 0.024 0.004 0.048 0.007 0.073 0.007h15.983c0.221 0 0.4-0.179 0.4-0.4v-8.246c0-0.221-0.179-0.4-0.4-0.4zM15.934 12.446h-2.111c0.162-0.426 0.574-0.729 1.056-0.729s0.894 0.303 1.056 0.729zM26.607 12.446h-2.111c0.162-0.426 0.574-0.729 1.056-0.729s0.894 0.303 1.055 0.729zM19.249 17.258h8.504v1.76h-8.504v-1.76zM18.449 17.258v3.215h-5.861v-3.215h5.861zM27.753 9.328h-4.405v-2.032h4.405v2.032zM22.549 9.328h-4.58v-2.032h4.58v2.032zM17.168 9.328h-4.58v-2.032h4.58v2.032zM4.229 7.296h7.559v6.898h-7.559v-6.898zM4.229 14.994h7.559v9.71h-7.559v-9.71zM12.588 24.704v-3.431h5.861v3.431h-5.861zM19.249 24.704v-4.886h8.521v4.886h-8.521z"></path>
<path d="M25.966 20.301h-4.93c-0.221 0-0.4 0.179-0.4 0.4v3.131c0 0.221 0.179 0.4 0.4 0.4h4.93c0.221 0 0.4-0.179 0.4-0.4v-3.131c0-0.221-0.179-0.4-0.4-0.4zM25.566 23.432h-4.13v-2.331h4.13v2.331z"></path>
<path d="M16.041 18.234c0 0.289-0.234 0.523-0.523 0.523s-0.523-0.234-0.523-0.523c0-0.289 0.234-0.523 0.523-0.523s0.523 0.234 0.523 0.523z"></path>
<path d="M15.237 8.312c0 0.198-0.161 0.359-0.359 0.359s-0.359-0.161-0.359-0.359c0-0.198 0.161-0.359 0.359-0.359s0.359 0.161 0.359 0.359z"></path>
<path d="M20.618 8.312c0 0.198-0.161 0.359-0.359 0.359s-0.359-0.161-0.359-0.359c0-0.198 0.161-0.359 0.359-0.359s0.359 0.161 0.359 0.359z"></path>
<path d="M25.91 8.312c0 0.198-0.161 0.359-0.359 0.359s-0.359-0.161-0.359-0.359c0-0.198 0.161-0.359 0.359-0.359s0.359 0.161 0.359 0.359z"></path>
<path d="M16.041 22.266c0 0.289-0.234 0.523-0.523 0.523s-0.523-0.234-0.523-0.523c0-0.289 0.234-0.523 0.523-0.523s0.523 0.234 0.523 0.523z"></path>
<path d="M21.166 18.138c0 0.289-0.234 0.523-0.523 0.523s-0.523-0.234-0.523-0.523c0-0.289 0.234-0.523 0.523-0.523s0.523 0.234 0.523 0.523z"></path>
<path d="M22.595 18.138c0 0.289-0.234 0.523-0.523 0.523s-0.523-0.234-0.523-0.523c0-0.289 0.234-0.523 0.523-0.523s0.523 0.234 0.523 0.523z"></path>
<path d="M24.024 18.138c0 0.289-0.234 0.523-0.523 0.523s-0.523-0.234-0.523-0.523c0-0.289 0.234-0.523 0.523-0.523s0.523 0.234 0.523 0.523z"></path>
<path d="M25.453 18.138c0 0.289-0.234 0.523-0.523 0.523s-0.523-0.234-0.523-0.523c0-0.289 0.234-0.523 0.523-0.523s0.523 0.234 0.523 0.523z"></path>
<path d="M26.882 18.138c0 0.289-0.234 0.523-0.523 0.523s-0.523-0.234-0.523-0.523c0-0.289 0.234-0.523 0.523-0.523s0.523 0.234 0.523 0.523z"></path>
</symbol>
<symbol id="icon-single-bed" viewBox="0 0 32 32">
<path d="M26.845 19.065c0.002-0.022 0.007-0.043 0.007-0.065v-1.5c-0.001-1.104-0.896-1.999-2-2h-0.389v-6c-0.001-0.552-0.448-0.999-1-1h-14.926c-0.552 0.001-0.999 0.448-1 1v6h-0.389c-1.104 0.001-1.999 0.896-2 2v1.5c0 0.023 0.005 0.043 0.006 0.065-0.384 0.144-0.653 0.508-0.654 0.935v4c0.002 0.105 0.019 0.205 0.051 0.298l-0.002-0.007c-0.030 0.061-0.048 0.133-0.048 0.208v1c0 0.276 0.224 0.5 0.5 0.5s0.5-0.224 0.5-0.5v0-0.5h21v0.5c0 0.276 0.224 0.5 0.5 0.5s0.5-0.224 0.5-0.5v0-1c-0.001-0.076-0.019-0.148-0.050-0.211l0.001 0.003c0.029-0.087 0.047-0.187 0.049-0.291v-4.001c-0.001-0.427-0.27-0.791-0.648-0.933l-0.007-0.002zM8.537 9.5h14.926v6h-3.988c0.016-0.075 0.025-0.162 0.025-0.25 0-0.69-0.559-1.25-1.25-1.25h-4.5c-0 0-0 0-0 0-0.69 0-1.25 0.56-1.25 1.25 0 0.088 0.009 0.175 0.027 0.258l-0.001-0.008h-3.988zM13.5 15.25c0-0.138 0.112-0.25 0.25-0.25v0h4.5c0.138 0 0.25 0.112 0.25 0.25s-0.112 0.25-0.25 0.25v0h-4.5c-0.138 0-0.25-0.112-0.25-0.25v0zM6.148 17.5c0.001-0.552 0.448-0.999 1-1h17.704c0.552 0.001 0.999 0.448 1 1v0l0 1.5h-19.705zM5.5 24v-4h21l0 4z"></path>
</symbol>
<symbol id="icon-parking-sign" viewBox="0 0 32 32">
<path d="M16 8h-4c-0.736 0-1.333 0.597-1.333 1.333v0 13.333c0 0.736 0.597 1.333 1.333 1.333s1.333-0.597 1.333-1.333v0-4h2.667c2.946 0 5.333-2.388 5.333-5.333s-2.388-5.333-5.333-5.333v0zM16 16h-2.667v-5.333h2.667c1.473 0 2.667 1.194 2.667 2.667s-1.194 2.667-2.667 2.667v0zM25.333 2.667h-18.667c-2.209 0-4 1.791-4 4v0 18.667c0 2.209 1.791 4 4 4v0h18.667c2.209 0 4-1.791 4-4v0-18.667c0-2.209-1.791-4-4-4v0zM26.667 25.333c0 0.736-0.597 1.333-1.333 1.333v0h-18.667c-0.736 0-1.333-0.597-1.333-1.333v0-18.667c0-0.736 0.597-1.333 1.333-1.333v0h18.667c0.736 0 1.333 0.597 1.333 1.333v0z"></path>
</symbol>
<symbol id="icon-luxury-bathroom" viewBox="0 0 32 32">
<path d="M32.001 16v15c0 0.552-0.448 1-1 1h-26c-0.552 0-1-0.448-1-1v-15c0-0.552 0.448-1 1-1h26c0.552 0 1 0.448 1 1zM6.001 17v13h23.999v-13h-23.999z"></path>
<path d="M32 5v11c0 0.553-0.448 1-1 1h-4c-0.552 0-1-0.447-1-1v-11c0-0.553 0.448-1 1-1h4c0.552 0 1 0.447 1 1zM28 6v9h2v-9h-2z"></path>
<path d="M27 9h1v7c0 0.553-0.448 1-1 1h-4c-0.552 0-1-0.447-1-1 0 0 0-1.432 0-3 0-2.762 2.239-5 5-5v1zM26 10.171c-1.165 0.411-2 1.522-2 2.829v2h2v-4.829z"></path>
<path d="M19 7h-8c-0.552 0-1 0.448-1 1s0.448 1 1 1h8c0.552 0 1-0.448 1-1s-0.448-1-1-1z"></path>
<path d="M18 8c0 1.656-1.344 3-3 3s-3-1.344-3-3c0-0.552-0.448-1-1-1s-1 0.448-1 1c0 2.76 2.24 5 5 5s5-2.24 5-5c0-0.552-0.448-1-1-1s-1 0.448-1 1z"></path>
<path d="M2 8c0-3.311 2.689-6 6-6s6 2.689 6 6c0 0.552 0.448 1 1 1s1-0.448 1-1c0-4.416-3.584-8-8-8s-8 3.584-8 8c0 0.552 0.448 1 1 1s1-0.448 1-1z"></path>
<path d="M-0 8v23c0 0.552 0.448 1 1 1s1-0.448 1-1v-23c0-0.552-0.448-1-1-1s-1 0.448-1 1z"></path>
</symbol>
<symbol id="icon-trampoline" viewBox="0 0 32 32">
<path d="M1.497 6.634v18.574c0 0.272 0.221 0.493 0.493 0.493s0.493-0.221 0.493-0.493v0-18.574c-0.006-0.268-0.224-0.482-0.493-0.482s-0.487 0.215-0.493 0.481v0.001zM29.358 6.634v18.574c0 0.272 0.221 0.493 0.493 0.493s0.493-0.221 0.493-0.493v0-18.574c-0.009-0.266-0.226-0.478-0.493-0.478s-0.484 0.212-0.493 0.477l-0 0.001zM22.135 20.188v2.956c0 0.272 0.221 0.493 0.493 0.493s0.493-0.221 0.493-0.493v0-2.956c-0.009-0.266-0.226-0.478-0.493-0.478s-0.484 0.212-0.493 0.477l-0 0.001zM8.72 20.188v2.956c0 0.272 0.221 0.493 0.493 0.493s0.493-0.221 0.493-0.493v0-2.956c-0.006-0.267-0.224-0.482-0.493-0.482s-0.487 0.215-0.493 0.481v0.001z"></path>
<path d="M15.92 6.141c-4.731 0-8.925 1.21-11.526 3.049-1.842 1.303-2.897 2.93-2.897 4.667s1.056 3.365 2.897 4.667c2.601 1.839 6.794 3.049 11.526 3.049s8.925-1.21 11.525-3.049c1.842-1.302 2.898-2.93 2.898-4.667s-1.056-3.365-2.898-4.667c-2.601-1.839-6.794-3.049-11.525-3.049zM15.92 7.126c4.495 0 8.486 1.121 10.956 2.868 1.539 1.088 2.481 2.41 2.481 3.862s-0.942 2.774-2.481 3.862c-2.471 1.747-6.462 2.868-10.956 2.868s-8.486-1.121-10.957-2.868c-1.539-1.088-2.481-2.41-2.481-3.862s0.942-2.774 2.481-3.862c2.471-1.747 6.462-2.868 10.957-2.868z"></path>
<path d="M15.92 8.816c-3.023 0-5.701 0.778-7.362 1.953-1.216 0.86-1.901 1.941-1.901 3.088s0.686 2.228 1.901 3.088c1.662 1.175 4.34 1.953 7.362 1.953s5.701-0.778 7.362-1.953c1.216-0.86 1.902-1.941 1.902-3.088s-0.686-2.228-1.902-3.088c-1.662-1.175-4.339-1.953-7.362-1.953zM15.92 9.802c2.786 0 5.262 0.689 6.793 1.772 0.913 0.646 1.485 1.422 1.485 2.283s-0.572 1.637-1.485 2.283c-1.531 1.083-4.007 1.772-6.793 1.772s-5.262-0.689-6.793-1.772c-0.913-0.646-1.485-1.422-1.485-2.283s0.572-1.637 1.485-2.283c1.532-1.083 4.007-1.772 6.793-1.772z"></path>
</symbol>
<symbol id="icon-living-room" viewBox="0 0 32 32">
<path d="M12.606 13.799h-3.287c0.257-0.441 0.393-0.936 0.393-1.459 0-0.519-0.136-1.028-0.398-1.474-0.291-0.495-0.495-1.042-0.606-1.629-0.034-0.17-0.184-0.296-0.359-0.296h-1.198v-0.776c0.693-0.165 1.212-0.785 1.212-1.527 0-0.868-0.708-1.576-1.576-1.576s-1.576 0.708-1.576 1.576c0 0.742 0.519 1.362 1.212 1.527v0.776h-1.198c-0.175 0-0.325 0.126-0.359 0.296-0.112 0.587-0.315 1.135-0.606 1.629-0.262 0.446-0.398 0.955-0.398 1.474 0 0.524 0.136 1.018 0.393 1.459h-3.287c-0.199 0-0.364 0.165-0.364 0.364v13.091c0 0.199 0.165 0.364 0.364 0.364h1.455c0.155 0 0.296-0.102 0.344-0.247l0.402-1.207h7.234l0.402 1.207c0.049 0.15 0.189 0.247 0.344 0.247h1.455c0.199 0 0.364-0.165 0.364-0.364v-13.091c0-0.199-0.165-0.364-0.364-0.364zM5.939 6.642c0-0.465 0.383-0.848 0.849-0.848s0.848 0.383 0.848 0.848-0.383 0.848-0.848 0.848-0.848-0.383-0.848-0.848zM4.591 12.339c0-0.388 0.102-0.771 0.301-1.105 0.281-0.48 0.495-1.008 0.63-1.561h2.531c0.136 0.558 0.344 1.081 0.63 1.561 0.194 0.335 0.301 0.718 0.301 1.105 0 0.543-0.199 1.057-0.558 1.459h-3.273c-0.364-0.402-0.562-0.916-0.562-1.459zM1.333 14.526l5.091 0.010v10.899h-5.091v-10.909zM2.162 26.89h-0.829v-0.727h1.071l-0.242 0.727zM7.152 14.536l5.091-0.010v10.909h-5.091v-10.899zM12.242 26.89h-0.829l-0.242-0.727h1.072v0.727zM29.939 19.656v-2.099c0-0.737-0.596-1.333-1.333-1.333h-11.636c-0.737 0-1.333 0.596-1.333 1.333v2.099c-0.829 0.17-1.455 0.902-1.455 1.779v5.818c0 0.199 0.165 0.364 0.364 0.364h16.485c0.199 0 0.364-0.165 0.364-0.364v-5.818c0-0.878-0.625-1.615-1.455-1.779zM16.97 16.95h11.636c0.335 0 0.606 0.271 0.606 0.606v2.099c-0.829 0.17-1.455 0.902-1.455 1.779v1.576h-9.939v-1.576c0-0.878-0.625-1.615-1.455-1.779v-2.099c0-0.335 0.271-0.606 0.606-0.606zM17.818 23.738h9.939v0.606c0 0.335-0.271 0.606-0.606 0.606h-8.727c-0.335 0-0.606-0.271-0.606-0.606v-0.606zM30.667 26.89h-15.758v-5.455c0-0.601 0.49-1.091 1.091-1.091s1.091 0.49 1.091 1.091v2.909c0 0.737 0.596 1.333 1.333 1.333h8.727c0.737 0 1.333-0.596 1.333-1.333v-2.909c0-0.601 0.49-1.091 1.091-1.091s1.091 0.49 1.091 1.091v5.455z"></path>
<path d="M22.788 21.799c0.199 0 0.364-0.165 0.364-0.364v-2.909c0-0.199-0.165-0.364-0.364-0.364s-0.364 0.165-0.364 0.364v2.909c0 0.199 0.165 0.364 0.364 0.364z"></path>
<path d="M19.394 19.496c0 0.268-0.217 0.485-0.485 0.485s-0.485-0.217-0.485-0.485c0-0.268 0.217-0.485 0.485-0.485s0.485 0.217 0.485 0.485z"></path>
<path d="M21.333 19.496c0 0.268-0.217 0.485-0.485 0.485s-0.485-0.217-0.485-0.485c0-0.268 0.217-0.485 0.485-0.485s0.485 0.217 0.485 0.485z"></path>
<path d="M20.364 18.526c0 0.268-0.217 0.485-0.485 0.485s-0.485-0.217-0.485-0.485c0-0.268 0.217-0.485 0.485-0.485s0.485 0.217 0.485 0.485z"></path>
<path d="M20.364 20.465c0 0.268-0.217 0.485-0.485 0.485s-0.485-0.217-0.485-0.485c0-0.268 0.217-0.485 0.485-0.485s0.485 0.217 0.485 0.485z"></path>
<path d="M25.212 19.496c0 0.268-0.217 0.485-0.485 0.485s-0.485-0.217-0.485-0.485c0-0.268 0.217-0.485 0.485-0.485s0.485 0.217 0.485 0.485z"></path>
<path d="M27.151 19.496c0 0.268-0.217 0.485-0.485 0.485s-0.485-0.217-0.485-0.485c0-0.268 0.217-0.485 0.485-0.485s0.485 0.217 0.485 0.485z"></path>
<path d="M26.182 18.526c0 0.268-0.217 0.485-0.485 0.485s-0.485-0.217-0.485-0.485c0-0.268 0.217-0.485 0.485-0.485s0.485 0.217 0.485 0.485z"></path>
<path d="M26.182 20.465c0 0.268-0.217 0.485-0.485 0.485s-0.485-0.217-0.485-0.485c0-0.268 0.217-0.485 0.485-0.485s0.485 0.217 0.485 0.485z"></path>
<path d="M5.333 21.799c0.199 0 0.364-0.165 0.364-0.364v-2.909c0-0.199-0.165-0.364-0.364-0.364s-0.364 0.165-0.364 0.364v2.909c0 0.199 0.165 0.364 0.364 0.364zM8.242 18.162c-0.199 0-0.364 0.165-0.364 0.364v2.909c0 0.199 0.165 0.364 0.364 0.364s0.364-0.165 0.364-0.364v-2.909c0-0.199-0.165-0.364-0.364-0.364zM31.030-2.201h-14.545c-0.199 0-0.364 0.165-0.364 0.364v10.667c0 0.199 0.165 0.364 0.364 0.364h14.545c0.199 0 0.364-0.165 0.364-0.364v-10.667c0-0.199-0.165-0.364-0.364-0.364zM16.849-0.96l1.212 1.212v6.487l-1.212 1.212v-8.912zM26.332 6.526l-1.091-1.091 1.91-1.91 1.576 1.576v1.425h-2.395zM28.727 4.073l-1.319-1.319c-0.141-0.141-0.373-0.141-0.514 0l-2.167 2.167-2.652-2.652c-0.141-0.141-0.373-0.141-0.514 0l-2.773 2.773v-4.577h9.939v3.607zM18.788 6.070l3.030-3.030 3.486 3.486h-6.516v-0.456zM28.941-0.262h-10.366l-1.212-1.212h12.79l-1.212 1.212zM18.575 7.253h10.366l1.212 1.212h-12.79l1.212-1.212zM29.455 6.739v-1.789c0 0 0 0 0-0.005v-4.693l1.212-1.212v8.912l-1.212-1.212z"></path>
<path d="M24.727 3.859c0.737 0 1.333-0.596 1.333-1.333s-0.596-1.333-1.333-1.333-1.333 0.596-1.333 1.333 0.596 1.333 1.333 1.333zM24.727 1.92c0.335 0 0.606 0.272 0.606 0.606s-0.271 0.606-0.606 0.606-0.606-0.272-0.606-0.606 0.271-0.606 0.606-0.606z"></path>
</symbol>
<symbol id="icon-wardrobe" viewBox="0 0 32 32">
<path d="M25.346 3.615c0.435 0 0.788-0.353 0.788-0.788s-0.353-0.788-0.788-0.788c-0.435 0-0.788 0.353-0.788 0.788v0c0 0.435 0.353 0.788 0.788 0.788v0z"></path>
<path d="M5.497 0.285c-0.276 0-0.5 0.224-0.5 0.5v0 30.058c0 0.276 0.224 0.5 0.5 0.5v0h3c0 0 0 0 0 0 0.202 0 0.377-0.12 0.455-0.293l0.001-0.003 1.046-2.347h13.005l1.043 2.35c0.080 0.176 0.254 0.297 0.457 0.297 0 0 0 0 0 0h3c0.276 0 0.5-0.224 0.5-0.5v0-30.061c0-0.276-0.224-0.5-0.5-0.5v0zM23.328 24.154h-13.655c-0.276 0-0.5 0.224-0.5 0.5v0 3.046h-3.175v-4.979h21.006v4.979h-3.175v-3.046c0-0.276-0.224-0.5-0.5-0.5v0zM27.003 21.721h-10.003v-20.436h10.003zM16 1.286v20.436h-10.003v-20.436zM8.173 30.343h-2.176v-1.643h2.906zM10.173 27.699v-2.544h12.655v2.546zM24.828 30.343l-0.73-1.643h2.906v1.645z"></path>
<path d="M18.794 8.508h1v5.316h-1zM13.199 8.508h1v5.316h-1zM7.654 3.615c0.435 0 0.788-0.353 0.788-0.788s-0.353-0.788-0.787-0.788c-0.435 0-0.787 0.353-0.787 0.788v0c0 0.435 0.353 0.788 0.787 0.788v0zM25.346 20.966c0.435 0 0.788-0.353 0.788-0.788s-0.353-0.788-0.788-0.788c-0.435 0-0.788 0.353-0.788 0.788v0c0 0.435 0.353 0.788 0.788 0.788v0zM7.654 20.966c0.435 0 0.788-0.353 0.788-0.788s-0.353-0.788-0.787-0.788c-0.435 0-0.787 0.353-0.787 0.788v0c0 0.435 0.353 0.788 0.787 0.788v0z"></path>
</symbol>
<symbol id="icon-frying-pan" viewBox="0 0 32 32">
<path d="M7.83 16.57c-0.97 0.971-1.57 2.313-1.57 3.794 0 2.966 2.404 5.37 5.37 5.37s5.37-2.404 5.37-5.37c0-1.481-0.6-2.823-1.57-3.794l0 0c-0.973-0.971-2.316-1.572-3.8-1.572s-2.827 0.6-3.8 1.572l0-0zM14 22.75c-0.611 0.615-1.456 0.995-2.391 0.995-1.861 0-3.37-1.509-3.37-3.37s1.509-3.37 3.37-3.37c0.935 0 1.78 0.38 2.391 0.995l0 0c0.603 0.61 0.975 1.449 0.975 2.375s-0.372 1.765-0.975 2.375l0-0z"></path>
<path d="M28.46 3c-0.543-0.542-1.292-0.877-2.12-0.877s-1.577 0.335-2.12 0.877l0-0-4.62 4.66c-0.548 0.544-0.887 1.297-0.887 2.13 0 0.465 0.106 0.905 0.295 1.298l-0.008-0.018-1.54 1.54c-0.016 0.022-0.032 0.048-0.048 0.075l-0.002 0.005c-1.568-1.153-3.537-1.845-5.668-1.845-5.319 0-9.63 4.311-9.63 9.63s4.311 9.63 9.63 9.63c5.319 0 9.63-4.311 9.63-9.63 0-2.497-0.95-4.772-2.509-6.483l0.007 0.008 1.54-1.55c0.378 0.185 0.824 0.293 1.294 0.293 0.826 0 1.574-0.334 2.116-0.874l4.62-4.62c0.542-0.543 0.877-1.292 0.877-2.12s-0.335-1.577-0.877-2.12l0 0zM17 25.77c-1.382 1.387-3.293 2.245-5.405 2.245-4.214 0-7.63-3.416-7.63-7.63s3.416-7.63 7.63-7.63c2.112 0 4.024 0.858 5.405 2.245l0 0c1.387 1.374 2.245 3.279 2.245 5.385s-0.859 4.011-2.245 5.384l-0.001 0.001zM27 5.87l-4.62 4.62c-0.16 0.113-0.358 0.18-0.573 0.18-0.552 0-1-0.448-1-1 0-0.222 0.072-0.427 0.195-0.593l-0.002 0.003 4.62-4.62c0.184-0.25 0.477-0.41 0.807-0.41 0.552 0 1 0.448 1 1 0 0.338-0.168 0.637-0.424 0.818l-0.003 0.002z"></path>
</symbol>
<symbol id="icon-cooker-regulator" viewBox="0 0 32 32">
<path d="M15.726 9.884c-5.113 0.152-9.201 4.334-9.201 9.47 0 0.001 0 0.002 0 0.003v-0c0 5.232 4.242 9.474 9.474 9.474s9.474-4.242 9.474-9.474v0c0-0.001 0-0.002 0-0.002 0-5.232-4.242-9.474-9.474-9.474-0.096 0-0.192 0.001-0.288 0.004l0.014-0zM15.749 10.886c0.075-0.002 0.162-0.004 0.25-0.004s0.176 0.001 0.263 0.004l-0.013-0v2.613h-0.5v-2.613zM14.749 10.974v3.525h2.5v-3.525c4.111 0.63 7.224 4.142 7.224 8.381 0 4.68-3.794 8.474-8.474 8.474s-8.474-3.794-8.474-8.474c0-4.239 3.112-7.751 7.177-8.375l0.047-0.006z"></path>
<path d="M18.476 3.172c-0.086-0.002-0.187-0.003-0.289-0.003-8.94 0-16.187 7.247-16.187 16.187 0 0 0 0 0 0v0c0-0 0-0.001 0-0.001 0-7.558 6.127-13.684 13.684-13.684 4.391 0 8.299 2.068 10.803 5.284l0.023 0.031 3.488-2.699c-2.897-3.085-6.975-5.032-11.508-5.115l-0.015-0zM18.872 4.183c3.729 0.174 7.079 1.666 9.623 4.019l-0.010-0.009-1.822 1.41c-2.702-3.031-6.618-4.931-10.977-4.931-0.617 0-1.225 0.038-1.822 0.112l0.071-0.007c1.275-0.386 2.74-0.609 4.257-0.609 0.239 0 0.477 0.006 0.713 0.016l-0.034-0.001z"></path>
</symbol>
<symbol id="icon-kettle" viewBox="0 0 32 32">
<path d="M30.667 16.080v-6.080c-0.007-3.332-2.235-6.141-5.282-7.027l-0.052-0.013c-0.182-0.933-0.992-1.627-1.965-1.627-0.012 0-0.025 0-0.037 0l0.002-0h-4c-0.010-0-0.023-0-0.035-0-0.973 0-1.783 0.694-1.963 1.614l-0.002 0.013c-3.098 0.899-5.326 3.708-5.333 7.039v5.534c-1.204 0.85-1.982 2.234-1.987 3.799v2.001c-0.004 0-0.009 0-0.013 0-1.105 0-2-0.895-2-2 0 0 0-0 0-0v0-2c0-0.017 0-0.036 0-0.056 0-1.974-1.43-3.614-3.31-3.941l-0.024-0.003h-4c-0.022-0.003-0.047-0.004-0.073-0.004-0.37 0-0.671 0.3-0.671 0.671 0 0.345 0.26 0.628 0.594 0.666l0.003 0c0.408 0.085 0.766 0.253 1.073 0.485l-0.007-0.005c0.659 0.491 1.080 1.268 1.080 2.144 0 0.015-0 0.030-0 0.045l0-0.002v2.667c0 0.006-0 0.013-0 0.020 0 4.939 3.836 8.982 8.691 9.312l0.029 0.002c0.839 0.824 1.99 1.333 3.261 1.333 0.007 0 0.014 0 0.020-0h12.666c2.577 0 4.667-2.089 4.667-4.667v0-6.667c-0.002-1.268-0.511-2.416-1.334-3.254l0.001 0.001zM4 20v-2.667c0-0.020 0.001-0.043 0.001-0.066 0-0.995-0.364-1.906-0.965-2.606l0.004 0.005h1.493c1.226 0.257 2.134 1.329 2.134 2.613 0 0.019-0 0.038-0.001 0.057l0-0.003v2c0 1.841 1.492 3.333 3.333 3.333v0 0 3.333c0 0.001 0 0.002 0 0.003 0 0.659 0.137 1.286 0.385 1.853l-0.012-0.030c-3.662-0.78-6.37-3.987-6.373-7.826v-0zM19.333 2.667h4c0.368 0 0.667 0.298 0.667 0.667s-0.298 0.667-0.667 0.667v0h-4c-0.368 0-0.667-0.298-0.667-0.667s0.298-0.667 0.667-0.667v0zM13.333 10c0.009-2.682 1.777-4.949 4.211-5.709l0.043-0.011c0.342 0.627 0.995 1.047 1.746 1.053h4.001c0.752-0.006 1.405-0.426 1.741-1.043l0.005-0.010c2.476 0.771 4.244 3.038 4.253 5.719v5.134c-0.385-0.21-0.832-0.372-1.305-0.462l-0.029-0.005c-0.331-2.274-2.268-4-4.607-4-0.021 0-0.042 0-0.063 0l0.003-0v-0.667c0-1.105-0.895-2-2-2s-2 0.895-2 2v0 0.667c-2.336 0.004-4.269 1.729-4.597 3.975l-0.003 0.025c-0.48 0.010-0.937 0.092-1.366 0.236l0.032-0.009zM22.667 12h0.667c0.017-0 0.037-0 0.056-0 1.608 0 2.951 1.134 3.273 2.645l0.004 0.022h-10.667c0.326-1.533 1.669-2.667 3.277-2.667 0.020 0 0.040 0 0.059 0.001l-0.003-0h3.333zM20.667 10.667v-0.667c0-0.368 0.298-0.667 0.667-0.667s0.667 0.298 0.667 0.667v0 0.667zM30.667 26c0 1.841-1.492 3.333-3.333 3.333v0h-12.667c-1.841 0-3.333-1.492-3.333-3.333v0-6.667c0-1.841 1.492-3.333 3.333-3.333v0h12.667c1.841 0 3.333 1.492 3.333 3.333v0z"></path>
</symbol>
<symbol id="icon-picnic-table" viewBox="0 0 32 32">
<path d="M22.728 7.749h-4.017c-0.283 0-0.512-0.229-0.512-0.512s0.229-0.512 0.512-0.512v0h4.017c0.589-0.003 1.066-0.48 1.069-1.069v-0c-0.001-0.59-0.479-1.068-1.069-1.069h-13.456c-0.589 0.003-1.066 0.48-1.069 1.069v0c0.001 0.59 0.479 1.068 1.069 1.069h7.031c0.283 0 0.512 0.229 0.512 0.512s-0.229 0.512-0.512 0.512v0h-7.031c-1.156 0-2.093-0.937-2.093-2.093s0.937-2.093 2.093-2.093v0h13.456c1.156 0 2.093 0.937 2.093 2.093s-0.937 2.093-2.093 2.093v0zM27.296 17.504h-22.592c-1.113-0.001-2.015-0.903-2.016-2.016v-0.154c0.001-1.113 0.903-2.015 2.016-2.016h22.592c1.113 0.001 2.015 0.903 2.016 2.016v0.154c-0.001 1.113-0.903 2.015-2.016 2.016h-0zM4.704 14.342c-0.548 0-0.992 0.444-0.992 0.992v0 0.154c0 0.548 0.444 0.992 0.992 0.992v0h22.592c0.548 0 0.992-0.444 0.992-0.992v0-0.154c0-0.548-0.444-0.992-0.992-0.992v0z"></path>
<path d="M11.183 14.342c-0 0-0 0-0 0-0.283 0-0.512-0.229-0.512-0.512 0-0.055 0.009-0.108 0.025-0.157l-0.001 0.004 2.072-6.592c0.067-0.21 0.261-0.358 0.488-0.358 0.283 0 0.512 0.229 0.512 0.512 0 0.055-0.009 0.108-0.025 0.157l0.001-0.004-2.072 6.592c-0.067 0.209-0.26 0.358-0.488 0.358h-0zM13.617 14.342c-0.283-0-0.512-0.229-0.512-0.512 0-0.055 0.009-0.108 0.025-0.157l-0.001 0.004 1.988-6.326c0.016-0.050 0.030-0.109 0.037-0.17l0.001-0.005c0.030-0.257 0.246-0.455 0.509-0.455 0.283 0 0.512 0.229 0.512 0.512 0 0.023-0.002 0.046-0.005 0.068l0-0.003c-0.017 0.136-0.044 0.258-0.082 0.375l0.004-0.014-1.988 6.325c-0.067 0.209-0.26 0.358-0.488 0.358v0zM8.387 28.437c-0.213-0-0.416-0.045-0.6-0.124l0.010 0.004c-0.413-0.174-0.741-0.517-0.921-0.965-0.092-0.222-0.145-0.481-0.145-0.751 0-0.216 0.034-0.425 0.097-0.62l-0.004 0.014 2.877-9.155c0.067-0.209 0.261-0.358 0.488-0.358 0.283 0 0.512 0.229 0.512 0.512 0 0.055-0.009 0.108-0.025 0.157l0.001-0.004-2.877 9.155c-0.136 0.434 0.044 0.925 0.394 1.072 0.057 0.025 0.123 0.040 0.192 0.040h0c0.254 0 0.49-0.206 0.586-0.512l3.162-10.061c0.067-0.209 0.261-0.358 0.488-0.358 0.283 0 0.512 0.229 0.512 0.512 0 0.055-0.009 0.108-0.025 0.157l0.001-0.004-3.162 10.060c-0.231 0.736-0.859 1.23-1.563 1.23z"></path>
<path d="M20.783 14.342c-0.228-0-0.421-0.149-0.487-0.355l-0.001-0.004-1.959-6.235h-1.362l1.863 5.928c0.015 0.046 0.024 0.099 0.024 0.154 0 0.283-0.229 0.512-0.512 0.512-0.228 0-0.421-0.149-0.487-0.355l-0.001-0.004-1.988-6.326c-0.034-0.103-0.061-0.225-0.077-0.35l-0.001-0.010c-0.002-0.018-0.004-0.040-0.004-0.061 0-0.283 0.229-0.512 0.512-0.512h2.408c0 0 0.001 0 0.001 0 0.228 0 0.421 0.149 0.487 0.355l0.001 0.004 2.072 6.594c0.015 0.046 0.024 0.099 0.024 0.154 0 0.283-0.229 0.512-0.512 0.512-0 0-0 0-0 0v0zM23.58 28.437c-0.704 0-1.332-0.495-1.564-1.231l-3.162-10.061c-0.015-0.046-0.024-0.099-0.024-0.154 0-0.283 0.229-0.512 0.512-0.512 0.228 0 0.421 0.149 0.487 0.355l0.001 0.004 3.162 10.061c0.096 0.307 0.332 0.512 0.587 0.512 0.070-0 0.135-0.015 0.195-0.042l-0.003 0.001c0.35-0.147 0.53-0.638 0.394-1.072l-2.877-9.155c-0.017-0.049-0.027-0.105-0.027-0.163 0-0.283 0.229-0.512 0.512-0.512 0.231 0 0.427 0.153 0.49 0.364l0.001 0.004 2.877 9.155c0.059 0.181 0.093 0.39 0.093 0.606 0 0.271-0.053 0.529-0.15 0.765l0.005-0.013c-0.18 0.448-0.508 0.791-0.922 0.965-0.174 0.077-0.376 0.121-0.589 0.122h-0z"></path>
</symbol>
<symbol id="icon-rectangle" viewBox="0 0 32 32">
<path d="M32 5.5h-32v21h32v-21zM31 25.5h-30v-19h30v19z"></path>
</symbol>
<symbol id="icon-lounger" viewBox="0 0 32 32">
<path d="M7.755 6.84c-0.001 0-0.002 0-0.003 0-0.137 0-0.262-0.055-0.352-0.145l-0.095-0.095c-0.118-0.092-0.193-0.235-0.193-0.395 0-0.276 0.224-0.5 0.5-0.5 0.156 0 0.296 0.072 0.387 0.184l0.001 0.001 0.095 0.095c0.091 0.091 0.148 0.216 0.148 0.355s-0.057 0.264-0.148 0.355l-0 0c-0.088 0.087-0.207 0.142-0.339 0.145h-0.001z"></path>
<path d="M14.84 16.755c-0.001 0-0.002 0-0.003 0-0.137 0-0.262-0.055-0.352-0.145l0 0-12.090-12.11c-0.273-0.272-0.441-0.647-0.441-1.063s0.169-0.791 0.441-1.062l0-0c0.274-0.249 0.64-0.402 1.042-0.402 0.412 0 0.786 0.161 1.064 0.423l-0.001-0.001 2.11 2.105c0.091 0.091 0.147 0.216 0.147 0.355 0 0.277-0.225 0.502-0.502 0.502-0.139 0-0.264-0.056-0.355-0.147v0l-2.090-2.105c-0.090-0.089-0.213-0.144-0.35-0.145h-0c-0.001 0-0.002 0-0.003 0-0.137 0-0.262 0.055-0.352 0.145l0-0c-0.090 0.090-0.145 0.215-0.145 0.353s0.056 0.262 0.145 0.353l12.090 12.090c0.091 0.091 0.148 0.216 0.148 0.355s-0.057 0.264-0.148 0.355l-0 0c-0.090 0.090-0.215 0.145-0.352 0.145-0.001 0-0.002 0-0.003 0h0z"></path>
<path d="M28.29 29.79c-0.001 0-0.002 0-0.004 0-0.412 0-0.785-0.166-1.056-0.435l0 0-11.34-11.355c-0.091-0.091-0.147-0.216-0.147-0.355 0-0.277 0.225-0.502 0.502-0.502 0.139 0 0.264 0.056 0.355 0.147v0l11.34 11.355c0.090 0.090 0.215 0.145 0.352 0.145s0.262-0.056 0.353-0.145l-0 0c0.090-0.090 0.145-0.215 0.145-0.352s-0.056-0.262-0.145-0.353l-19.84-19.84c-0.118-0.092-0.193-0.235-0.193-0.395 0-0.276 0.224-0.5 0.5-0.5 0.156 0 0.296 0.072 0.387 0.184l0.001 0.001 19.855 19.84c0.271 0.271 0.439 0.646 0.439 1.060 0 0.828-0.672 1.5-1.5 1.5-0.001 0-0.003 0-0.004 0h0z"></path>
<path d="M20.8 19.885c-0.001 0-0.002 0-0.003 0-0.137 0-0.262-0.055-0.352-0.145l0 0-1.445-1.465c-0.090-0.090-0.146-0.215-0.146-0.353 0-0.176 0.091-0.331 0.229-0.42l0.002-0.001 8.29-4.8c0.213-0.12 0.468-0.191 0.739-0.191 0.553 0 1.038 0.294 1.307 0.734l0.004 0.007c0.126 0.215 0.201 0.474 0.201 0.75 0 0.553-0.299 1.036-0.744 1.296l-0.007 0.004-7.825 4.5c-0.070 0.048-0.156 0.079-0.249 0.085l-0.001 0zM20.15 18.025l0.73 0.735 7.5-4.33c0.148-0.089 0.246-0.248 0.246-0.431 0-0.092-0.025-0.178-0.068-0.251l0.001 0.002c-0.088-0.15-0.249-0.249-0.432-0.249-0.093 0-0.18 0.025-0.255 0.070l0.002-0.001zM3.875 29.5c-0.134-0.001-0.263-0.019-0.385-0.052l0.010 0.002c-0.643-0.179-1.106-0.759-1.106-1.447 0-0.534 0.279-1.003 0.7-1.269l0.006-0.004 0.040-0.030 14.15-8.2c0.072-0.042 0.158-0.067 0.251-0.067 0.139 0 0.264 0.056 0.354 0.147l1.465 1.465c0.091 0.091 0.148 0.216 0.148 0.355 0 0.185-0.101 0.347-0.251 0.433l-0.002 0.001-9.645 5.59c-0.072 0.042-0.158 0.067-0.25 0.067-0.277 0-0.502-0.225-0.502-0.502 0-0.185 0.1-0.347 0.249-0.434l0.002-0.001 9.080-5.24-0.73-0.735-13.805 7.97h-0.035c-0.145 0.089-0.241 0.247-0.241 0.427 0 0.091 0.024 0.176 0.067 0.25l-0.001-0.002c0.089 0.148 0.248 0.246 0.431 0.246 0.092 0 0.178-0.025 0.251-0.068l-0.002 0.001 3.25-1.875c0.072-0.042 0.158-0.067 0.25-0.067 0.277 0 0.502 0.225 0.502 0.502 0 0.185-0.1 0.347-0.249 0.434l-0.002 0.001-3.25 1.9c-0.216 0.124-0.474 0.198-0.749 0.2h-0.001z"></path>
<path d="M17.66 24c-1.166-0.001-2.285-0.201-3.325-0.567l0.070 0.022c-0.199-0.069-0.339-0.255-0.339-0.473 0-0.060 0.011-0.117 0.030-0.17l-0.001 0.003c0.068-0.201 0.255-0.343 0.475-0.343 0.059 0 0.116 0.010 0.169 0.029l-0.004-0.001c0.888 0.312 1.911 0.493 2.977 0.493 1.252 0 2.446-0.249 3.534-0.7l-0.061 0.023c0.055-0.022 0.118-0.035 0.185-0.035 0.276 0 0.5 0.224 0.5 0.5 0 0.21-0.129 0.389-0.312 0.464l-0.003 0.001c-1.147 0.478-2.479 0.755-3.876 0.755-0.007 0-0.014 0-0.020-0h0.001zM26.5 18.645c-0.276-0.001-0.499-0.224-0.499-0.5 0-0.086 0.022-0.167 0.060-0.238l-0.001 0.003c0.24-0.44 0.462-0.957 0.637-1.494l0.018-0.066 0.315-1c0.077-0.183 0.255-0.309 0.462-0.309 0.276 0 0.5 0.224 0.5 0.5 0 0.039-0.004 0.076-0.013 0.112l0.001-0.003-0.315 1c-0.212 0.668-0.457 1.241-0.751 1.783l0.026-0.053c-0.086 0.159-0.25 0.264-0.44 0.265h-0zM23.225 22.31c-0 0-0.001 0-0.001 0-0.276 0-0.5-0.224-0.5-0.5 0-0.172 0.087-0.324 0.219-0.414l0.002-0.001 0.34-0.235c0.658-0.491 1.233-1.037 1.737-1.644l0.013-0.016c0.091-0.136 0.244-0.224 0.417-0.224 0.276 0 0.5 0.224 0.5 0.5 0 0.138-0.056 0.264-0.147 0.354v0c-0.568 0.691-1.202 1.295-1.901 1.815l-0.029 0.020-0.37 0.26c-0.078 0.053-0.175 0.085-0.279 0.085-0 0-0.001 0-0.001 0h0zM12.41 22.415c-0.001 0-0.002 0-0.004 0-0.101 0-0.195-0.030-0.273-0.081l0.002 0.001c-0.444-0.296-0.831-0.599-1.193-0.927l0.008 0.007c-0.5-0.435-0.945-0.885-1.365-1.34-0.070-0.085-0.112-0.195-0.112-0.315 0-0.276 0.224-0.5 0.5-0.5 0.132 0 0.252 0.051 0.342 0.135l-0-0c0.405 0.43 0.845 0.86 1.305 1.28 0.318 0.288 0.666 0.559 1.032 0.804l0.033 0.021c0.134 0.091 0.221 0.243 0.221 0.415 0 0.275-0.222 0.498-0.496 0.5h-0zM8.57 18.635c-0.001 0-0.002 0-0.003 0-0.159 0-0.3-0.074-0.392-0.189l-0.001-0.001c-2.926-3.684-4.804-8.318-5.122-13.376l-0.003-0.069c-0.001-0.011-0.001-0.024-0.001-0.037 0-0.259 0.197-0.472 0.449-0.497l0.002-0c0.009-0.001 0.020-0.001 0.031-0.001 0.266 0 0.483 0.208 0.499 0.47l0 0.001c0.302 4.916 2.105 9.36 4.951 12.937l-0.036-0.047c0.067 0.084 0.108 0.192 0.108 0.31 0 0.276-0.224 0.5-0.5 0.5-0.001 0-0.002 0-0.003 0h0z"></path>
<path d="M3.375 27.635c-0.010 0.001-0.021 0.001-0.032 0.001-0.133 0-0.254-0.052-0.343-0.136l0 0c-0.091-0.091-0.147-0.216-0.147-0.354 0-0.092 0.025-0.179 0.069-0.253l-0.001 0.002 8.195-14.18c0.088-0.152 0.249-0.253 0.435-0.253 0.139 0 0.265 0.057 0.355 0.148l1.465 1.465c0.091 0.091 0.147 0.216 0.147 0.354 0 0.092-0.025 0.179-0.069 0.253l0.001-0.002-6.185 10.705c-0.046 0.075-0.108 0.136-0.183 0.179l-0.002 0.001-3.455 2c-0.070 0.044-0.155 0.070-0.245 0.070-0.002 0-0.003 0-0.005-0h0zM11.655 13.78l-6.91 12 1.72-1 5.925-10.28z"></path>
</symbol>
<symbol id="icon-clean-dishes" viewBox="0 0 32 32">
<path d="M9.138 6.679c-0.726-0.249-1.287-0.81-1.531-1.518l-0.005-0.017c-0.060-0.175-0.223-0.299-0.415-0.299s-0.355 0.124-0.414 0.296l-0.001 0.003c-0.249 0.726-0.81 1.287-1.519 1.53l-0.017 0.005c-0.175 0.060-0.299 0.223-0.299 0.415s0.124 0.355 0.296 0.414l0.003 0.001c0.726 0.249 1.287 0.81 1.531 1.519l0.005 0.017c0.060 0.175 0.223 0.299 0.415 0.299s0.355-0.124 0.414-0.296l0.001-0.003c0.249-0.726 0.81-1.287 1.519-1.531l0.017-0.005c0.175-0.060 0.299-0.223 0.299-0.415s-0.124-0.355-0.296-0.414l-0.003-0.001zM7.188 7.939c-0.232-0.333-0.512-0.613-0.834-0.838l-0.011-0.007c0.333-0.232 0.613-0.512 0.838-0.834l0.007-0.011c0.232 0.333 0.512 0.613 0.834 0.838l0.011 0.007c-0.333 0.232-0.613 0.512-0.838 0.834l-0.007 0.011zM29.263 17.304c-0.608-0.208-1.077-0.678-1.282-1.271l-0.004-0.014c-0.060-0.175-0.223-0.299-0.415-0.299s-0.355 0.124-0.414 0.296l-0.001 0.003c-0.208 0.608-0.678 1.077-1.271 1.282l-0.014 0.004c-0.175 0.060-0.299 0.223-0.299 0.415s0.124 0.355 0.296 0.414l0.003 0.001c0.608 0.208 1.077 0.678 1.282 1.271l0.004 0.014c0.060 0.175 0.223 0.299 0.415 0.299s0.355-0.124 0.414-0.296l0.001-0.003c0.208-0.608 0.678-1.077 1.271-1.282l0.014-0.004c0.175-0.060 0.299-0.223 0.299-0.415s-0.124-0.355-0.296-0.414l-0.003-0.001zM27.563 18.344c-0.178-0.24-0.384-0.446-0.617-0.619l-0.008-0.006c0.24-0.178 0.446-0.384 0.619-0.616l0.006-0.008c0.178 0.24 0.384 0.446 0.617 0.619l0.008 0.006c-0.24 0.178-0.446 0.384-0.619 0.616l-0.006 0.008zM3.71 18.545c0.060 0.175 0.223 0.299 0.415 0.299s0.355-0.124 0.414-0.296l0.001-0.003c0.158-0.46 0.513-0.816 0.962-0.97l0.011-0.003c0.175-0.060 0.299-0.223 0.299-0.415s-0.124-0.355-0.296-0.414l-0.003-0.001c-0.46-0.158-0.816-0.513-0.97-0.962l-0.003-0.011c-0.060-0.175-0.223-0.299-0.415-0.299s-0.355 0.124-0.414 0.296l-0.001 0.003c-0.158 0.46-0.513 0.815-0.962 0.97l-0.011 0.003c-0.175 0.060-0.299 0.223-0.299 0.415s0.124 0.355 0.296 0.414l0.003 0.001c0.46 0.158 0.816 0.513 0.97 0.962l0.003 0.011zM4.125 16.8c0.108 0.132 0.224 0.249 0.352 0.353l0.004 0.003c-0.132 0.108-0.249 0.224-0.353 0.352l-0.003 0.004c-0.108-0.132-0.224-0.249-0.352-0.353l-0.004-0.003c0.132-0.108 0.249-0.225 0.353-0.352l0.003-0.004zM17.152 13.493c0-2.257-1.829-4.086-4.086-4.086s-4.086 1.829-4.086 4.086c0 2.257 1.829 4.086 4.086 4.086v0c2.256-0.003 4.083-1.83 4.086-4.086v-0zM9.855 13.493c0-1.773 1.438-3.211 3.211-3.211s3.211 1.438 3.211 3.211c0 1.773-1.438 3.211-3.211 3.211-0 0-0 0-0 0v0c-1.772-0.002-3.209-1.438-3.211-3.211v-0z"></path>
<path d="M13.066 7.43c-3.343 0-6.063 2.728-6.063 6.071 0 2.426 1.432 4.499 3.495 5.499h-4.833c-0.002-0-0.003-0-0.005-0-0.239 0-0.432 0.193-0.433 0.432v0c0 0.002 0 0.005 0 0.008 0 0.521 0.18 1 0.48 1.378l-0.003-0.005h-0.039c-0.002-0-0.003-0-0.005-0-0.239 0-0.432 0.193-0.433 0.432v0c0 0.002 0 0.005 0 0.008 0 0.521 0.18 1 0.48 1.378l-0.003-0.005h-0.039c-0.002-0-0.003-0-0.005-0-0.239 0-0.432 0.193-0.433 0.432v0c0 0.002 0 0.005 0 0.008 0 0.521 0.18 1 0.48 1.378l-0.003-0.005h-0.039c-0.002-0-0.003-0-0.005-0-0.239 0-0.432 0.193-0.433 0.432v0c0.002 1.246 1.013 2.256 2.259 2.256 0.001 0 0.002 0 0.003 0h11.151c0.005 0 0.012 0 0.018 0 0.725 0 1.37-0.344 1.781-0.877l0.004-0.005 0.104-0.009c0.007-0.001 0.014 0.001 0.022 0 2.766-0.6 4.809-3.027 4.809-5.93 0-3.348-2.714-6.061-6.061-6.061-0 0-0.001 0-0.001 0h0c-0.078 0-0.156 0.002-0.234 0.005 0.030-0.226 0.047-0.488 0.047-0.753 0-3.349-2.714-6.063-6.062-6.064h-0zM7.878 13.493c0-0.002 0-0.003 0-0.005 0-2.865 2.323-5.188 5.188-5.188s5.187 2.323 5.187 5.188c0 1.396-0.552 2.664-1.449 3.596l0.002-0.002c-0.139 0.109-0.263 0.218-0.379 0.334l0-0 0.012 0.012c-0.901 0.778-2.084 1.252-3.378 1.252-2.863 0-5.183-2.321-5.183-5.183 0-0.002 0-0.003 0-0.004v0zM17.396 17.739c0.529-0.399 1.198-0.64 1.922-0.64 1.772 0 3.209 1.437 3.209 3.209 0 1.19-0.648 2.228-1.609 2.782l-0.016 0.008c0-0.009 0.001-0.023 0.001-0.032 0-0 0-0 0-0.001 0-0.242-0.195-0.439-0.437-0.441h-0.040c0.297-0.374 0.477-0.852 0.477-1.373 0-0.003 0-0.005 0-0.008v0c-0-0.238-0.194-0.432-0.433-0.432-0.002 0-0.003 0-0.005 0h-0.039c0.297-0.374 0.477-0.852 0.477-1.373 0-0.003 0-0.005 0-0.008v0c-0-0.238-0.194-0.432-0.433-0.432-0.002 0-0.003 0-0.005 0h-4.832c0.683-0.329 1.266-0.752 1.762-1.26l0.001-0.001zM6.174 19.875h13.784c-0.185 0.549-0.695 0.938-1.296 0.938-0.007 0-0.014-0-0.021-0h-11.151c-0.006 0-0.013 0-0.020 0-0.601 0-1.111-0.389-1.293-0.928l-0.003-0.010zM6.174 21.688h13.784c-0.185 0.549-0.695 0.938-1.296 0.938-0.007 0-0.014-0-0.021-0h-11.151c-0.006 0-0.013 0-0.020 0-0.601 0-1.111-0.389-1.293-0.928l-0.003-0.010zM6.174 23.5h13.784c-0.185 0.549-0.695 0.938-1.296 0.938-0.007 0-0.014-0-0.021-0h-11.151c-0.006 0-0.013 0-0.020 0-0.601 0-1.111-0.389-1.293-0.928l-0.003-0.010zM18.642 26.25h-11.152c-0.006 0-0.013 0-0.020 0-0.601 0-1.111-0.389-1.293-0.928l-0.003-0.010h13.784c-0.013 0.051-0.030 0.096-0.052 0.139l0.002-0.003-0.002 0.005 0-0.011c-0.222 0.481-0.7 0.808-1.254 0.808-0.004 0-0.008-0-0.012-0h0.001zM19.316 15.118c2.865 0 5.187 2.323 5.187 5.188 0 2.308-1.508 4.265-3.592 4.938l-0.037 0.010c0.018-0.111 0.029-0.239 0.029-0.369v-0c0-0 0-0.001 0-0.001 0-0.243-0.195-0.441-0.437-0.446h-0.040c0.071-0.077 0.132-0.164 0.181-0.259l0.003-0.007c1.636-0.557 2.792-2.080 2.792-3.873 0-2.255-1.828-4.082-4.082-4.082-0.001 0-0.003 0-0.004 0h0c-0.315 0.001-0.62 0.036-0.914 0.104l0.028-0.005c0.183-0.337 0.344-0.729 0.463-1.139l0.011-0.042c0.137-0.011 0.276-0.016 0.414-0.016z"></path>
</symbol>
<symbol id="icon-beach" viewBox="0 0 32 32">
<path d="M9.135 7.396c-0.245-0-0.449-0.177-0.492-0.41l-0-0.003-0.159-0.896c-0.005-0.026-0.008-0.057-0.008-0.088 0-0.276 0.224-0.5 0.5-0.5 0.245 0 0.449 0.177 0.492 0.41l0 0.003 0.159 0.896c0.005 0.026 0.008 0.057 0.008 0.088 0 0.276-0.224 0.5-0.5 0.5-0 0-0.001 0-0.001 0h0zM13.234 30.495c-0.245-0-0.449-0.177-0.492-0.41l-0-0.003-3.035-17.103c-0.005-0.026-0.008-0.057-0.008-0.088 0-0.276 0.224-0.5 0.5-0.5 0.245 0 0.449 0.177 0.492 0.41l0 0.003 3.035 17.103c0.005 0.026 0.008 0.057 0.008 0.088 0 0.276-0.224 0.5-0.5 0.5-0 0-0.001 0-0.001 0h0z"></path>
<path d="M29.25 30.5h-27c-0.276 0-0.5-0.224-0.5-0.5s0.224-0.5 0.5-0.5v0h27c0.276 0 0.5 0.224 0.5 0.5s-0.224 0.5-0.5 0.5v0zM25.25 25.5h-18c-0 0-0 0-0 0-0.173 0-0.325-0.088-0.415-0.221l-0.001-0.002-4-6c-0.058-0.080-0.092-0.181-0.092-0.289 0-0.276 0.224-0.5 0.5-0.5 0.178 0 0.334 0.093 0.423 0.233l0.001 0.002 3.852 5.777h17.732c0.276 0 0.5 0.224 0.5 0.5s-0.224 0.5-0.5 0.5v0z"></path>
<path d="M5.25 30.5c-0.276-0-0.5-0.224-0.5-0.501 0-0.067 0.013-0.13 0.037-0.188l-0.001 0.003 2-5c0.076-0.186 0.255-0.315 0.465-0.315 0.276 0 0.5 0.224 0.5 0.5 0 0.067-0.013 0.131-0.037 0.189l0.001-0.003-2 5c-0.076 0.186-0.255 0.315-0.464 0.315h-0zM27.25 30.5c-0.209-0-0.388-0.128-0.463-0.311l-0.001-0.003-2-5c-0.023-0.055-0.036-0.119-0.036-0.186 0-0.276 0.224-0.5 0.5-0.5 0.209 0 0.389 0.129 0.463 0.311l0.001 0.003 2 5c0.022 0.055 0.035 0.118 0.035 0.185 0 0.276-0.224 0.5-0.5 0.5-0 0-0 0-0 0h0zM2.322 14.79c-0.245-0-0.449-0.177-0.492-0.41l-0-0.003c-0.309-1.737 0.293-3.518 1.693-5.016 1.363-1.458 3.331-2.478 5.541-2.87 4.614-0.821 8.878 1.386 9.505 4.915 0.005 0.027 0.008 0.058 0.008 0.089 0 0.245-0.177 0.449-0.41 0.49l-0.003 0-15.754 2.796c-0.026 0.005-0.057 0.008-0.088 0.008h-0zM11.002 7.319c-0.575 0-1.166 0.051-1.764 0.157-1.998 0.355-3.768 1.267-4.985 2.568-1.042 1.115-1.563 2.398-1.496 3.661l14.709-2.61c-0.7-2.277-3.343-3.776-6.464-3.776z"></path>
<path d="M5.276 14.265c-0.245-0-0.449-0.177-0.492-0.41l-0-0.003c-0.301-1.693-0.031-3.386 0.759-4.769 0.807-1.411 2.057-2.332 3.52-2.591 2.989-0.528 5.925 1.911 6.551 5.439 0.005 0.027 0.008 0.058 0.008 0.089 0 0.245-0.177 0.449-0.41 0.49l-0.003 0-9.846 1.747c-0.025 0.004-0.054 0.007-0.084 0.007-0.001 0-0.002 0-0.003 0h0zM9.888 7.419c-0.215 0-0.432 0.019-0.649 0.057-1.167 0.207-2.171 0.954-2.828 2.104-0.598 1.046-0.845 2.309-0.712 3.602l8.826-1.566c-0.629-2.464-2.563-4.197-4.637-4.197z"></path>
<path d="M8.229 13.741c-0.245-0-0.449-0.177-0.492-0.41l-0-0.003c-0.29-1.629-0.349-3.206-0.167-4.44 0.267-1.81 0.959-2.302 1.493-2.397 1.601-0.292 3.033 2.783 3.597 5.963 0.005 0.027 0.008 0.058 0.008 0.089 0 0.245-0.177 0.449-0.41 0.49l-0.003 0-3.938 0.699c-0.025 0.005-0.054 0.008-0.083 0.008-0.002 0-0.003 0-0.005-0h0zM9.276 7.473c-0 0-0 0-0.001 0-0.013 0-0.026 0.001-0.039 0.003l0.001-0c-0.159 0.028-0.506 0.391-0.678 1.558-0.148 1.008-0.119 2.28 0.082 3.626l2.94-0.521c-0.635-3.095-1.805-4.666-2.306-4.666zM24.75 9.5c-1.378 0-2.5-1.122-2.5-2.5s1.122-2.5 2.5-2.5 2.5 1.122 2.5 2.5-1.122 2.5-2.5 2.5zM24.75 5.5c-0.827 0-1.5 0.673-1.5 1.5s0.673 1.5 1.5 1.5 1.5-0.673 1.5-1.5-0.673-1.5-1.5-1.5zM24.75 3.5c-0.276 0-0.5-0.224-0.5-0.5v0-1c0-0.276 0.224-0.5 0.5-0.5s0.5 0.224 0.5 0.5v0 1c0 0.276-0.224 0.5-0.5 0.5v0zM24.75 12.5c-0.276 0-0.5-0.224-0.5-0.5v0-1c0-0.276 0.224-0.5 0.5-0.5s0.5 0.224 0.5 0.5v0 1c0 0.276-0.224 0.5-0.5 0.5v0zM29.75 7.5h-1c-0.276 0-0.5-0.224-0.5-0.5s0.224-0.5 0.5-0.5v0h1c0.276 0 0.5 0.224 0.5 0.5s-0.224 0.5-0.5 0.5v0zM20.75 7.5h-1c-0.276 0-0.5-0.224-0.5-0.5s0.224-0.5 0.5-0.5v0h1c0.276 0 0.5 0.224 0.5 0.5s-0.224 0.5-0.5 0.5v0zM27.579 4.671c-0.276-0-0.5-0.224-0.5-0.5 0-0.138 0.056-0.263 0.146-0.353v0l0.707-0.707c0.090-0.087 0.212-0.14 0.347-0.14 0.276 0 0.5 0.224 0.5 0.5 0 0.135-0.053 0.258-0.14 0.348l-0.707 0.707c-0.090 0.090-0.214 0.146-0.351 0.146-0.001 0-0.001 0-0.002 0h0zM21.214 11.036c-0.276-0-0.5-0.224-0.5-0.5 0-0.138 0.056-0.263 0.146-0.353v0l0.707-0.707c0.090-0.087 0.212-0.14 0.347-0.14 0.276 0 0.5 0.224 0.5 0.5 0 0.135-0.053 0.258-0.14 0.348l-0.707 0.707c-0.090 0.090-0.215 0.146-0.352 0.146-0 0-0 0-0.001 0h0zM28.286 11.036c-0 0-0 0-0 0-0.138 0-0.263-0.056-0.354-0.146l-0.707-0.707c-0.087-0.090-0.14-0.212-0.14-0.347 0-0.276 0.224-0.5 0.5-0.5 0.135 0 0.258 0.053 0.348 0.14l0.707 0.707c0.090 0.090 0.146 0.215 0.146 0.353 0 0.276-0.223 0.499-0.499 0.5h-0zM21.921 4.671c-0 0-0 0-0 0-0.138 0-0.263-0.056-0.354-0.146l-0.707-0.707c-0.087-0.090-0.14-0.212-0.14-0.347 0-0.276 0.224-0.5 0.5-0.5 0.135 0 0.258 0.054 0.348 0.14l0.707 0.707c0.090 0.090 0.146 0.215 0.146 0.353 0 0.276-0.223 0.499-0.499 0.5h-0z"></path>
</symbol>
<symbol id="icon-menu-close" viewBox="0 0 32 32">
<path d="M23.733 10.304l-1.504-1.504-5.963 5.963-5.963-5.963-1.504 1.504 5.963 5.963-5.963 5.963 1.504 1.504 5.963-5.963 5.963 5.963 1.504-1.504-5.963-5.963 5.963-5.963z"></path>
</symbol>
<symbol id="icon-phone" viewBox="0 0 32 32">
<path d="M22 20c-2 2-2 4-4 4s-4-2-6-4-4-4-4-6 2-2 4-4-4-8-6-8-6 6-6 6c0 4 4.109 12.109 8 16s12 8 16 8c0 0 6-4 6-6s-6-8-8-6z"></path>
</symbol>
<symbol id="icon-envelop" viewBox="0 0 32 32">
<path d="M29 4h-26c-1.65 0-3 1.35-3 3v20c0 1.65 1.35 3 3 3h26c1.65 0 3-1.35 3-3v-20c0-1.65-1.35-3-3-3zM12.461 17.199l-8.461 6.59v-15.676l8.461 9.086zM5.512 8h20.976l-10.488 7.875-10.488-7.875zM12.79 17.553l3.21 3.447 3.21-3.447 6.58 8.447h-19.579l6.58-8.447zM19.539 17.199l8.461-9.086v15.676l-8.461-6.59z"></path>
</symbol>
<symbol id="icon-location" viewBox="0 0 32 32">
<path d="M16 0c-5.523 0-10 4.477-10 10 0 10 10 22 10 22s10-12 10-22c0-5.523-4.477-10-10-10zM16 16c-3.314 0-6-2.686-6-6s2.686-6 6-6 6 2.686 6 6-2.686 6-6 6z"></path>
</symbol>
<symbol id="icon-baby-crib" viewBox="0 0 32 32">
<path fill="none"  stroke-linejoin="round" stroke-linecap="round" stroke-miterlimit="4" stroke-width="1.5" d="M0.5 3.32v25.36"></path>
<path fill="none"  stroke-linejoin="round" stroke-linecap="round" stroke-miterlimit="4" stroke-width="1.5" d="M0.5 7.42h31v14.105h-31v-14.105z"></path>
<path fill="none"  stroke-linejoin="round" stroke-linecap="round" stroke-miterlimit="4" stroke-width="1.5" d="M31.5 3.32v25.36"></path>
<path fill="none"  stroke-linejoin="miter" stroke-linecap="butt" stroke-miterlimit="10" stroke-width="1.5" d="M0.5 21.53h15.5v4.985h-15.5v-4.985z"></path>
<path fill="none"  stroke-linejoin="miter" stroke-linecap="butt" stroke-miterlimit="10" stroke-width="1.5" d="M16 21.53h15.5v4.985h-15.5v-4.985z"></path>
<path d="M9.105 24.255c0 0.472-0.383 0.855-0.855 0.855s-0.855-0.383-0.855-0.855c0-0.472 0.383-0.855 0.855-0.855s0.855 0.383 0.855 0.855z"></path>
<path d="M24.605 24.255c0 0.472-0.383 0.855-0.855 0.855s-0.855-0.383-0.855-0.855c0-0.472 0.383-0.855 0.855-0.855s0.855 0.383 0.855 0.855z"></path>
<path fill="none"  stroke-linejoin="round" stroke-linecap="round" stroke-miterlimit="4" stroke-width="1.5" d="M8.25 21.53v-14.11"></path>
<path fill="none" stroke-linejoin="round" stroke-linecap="round" stroke-miterlimit="4" stroke-width="1.5" d="M16 21.53v-14.11"></path>
<path fill="none"  stroke-linejoin="round" stroke-linecap="round" stroke-miterlimit="4" stroke-width="1.5" d="M23.75 21.53v-14.11"></path>
</symbol>
<symbol id="icon-file-text" viewBox="0 0 32 32">
<path d="M27 0h-24c-1.65 0-3 1.35-3 3v26c0 1.65 1.35 3 3 3h24c1.65 0 3-1.35 3-3v-26c0-1.65-1.35-3-3-3zM26 28h-22v-24h22v24zM8 14h14v2h-14zM8 18h14v2h-14zM8 22h14v2h-14zM8 10h14v2h-14z"></path>
</symbol>
</defs>
</svg>
